<svg width="512" height="512" viewBox="0 0 512 512" fill="none" xmlns="http://www.w3.org/2000/svg">
<rect width="512" height="512" fill="#1E1E1E"/>
<rect width="512" height="512" rx="100" fill="#121316"/>
<path d="M106.56 168.68L230.24 245.16V276.04L107.52 352.52L89.92 327.24L199.52 260.68L89.92 195.08L106.56 168.68Z" fill="#34C759"/>
<path d="M353.155 366.12C335.662 366.12 320.835 362.813 308.675 356.2C296.515 349.587 287.128 340.093 280.515 327.72C274.115 315.347 270.275 300.307 268.995 282.6L320.515 280.36C321.795 289.533 323.928 297.213 326.915 303.4C330.115 309.373 334.062 313.853 338.755 316.84C343.662 319.827 349.422 321.32 356.035 321.32C361.582 321.32 366.382 320.573 370.435 319.08C374.488 317.373 377.582 314.92 379.715 311.72C381.848 308.307 382.915 304.253 382.915 299.56C382.915 294.227 381.635 289.533 379.075 285.48C376.515 281.427 372.035 277.693 365.635 274.28C359.448 270.867 350.915 267.88 340.035 265.32C325.102 261.693 312.622 257.213 302.595 251.88C292.782 246.547 285.422 239.72 280.515 231.4C275.608 222.867 273.155 212.093 273.155 199.08C273.155 184.573 276.142 172.093 282.115 161.64C288.302 150.973 297.262 142.867 308.995 137.32C320.942 131.56 335.342 128.68 352.195 128.68C368.622 128.68 382.595 131.667 394.115 137.64C405.848 143.4 414.915 152.04 421.315 163.56C427.928 175.08 431.768 189.267 432.835 206.12L380.675 208.36C379.608 200.893 377.795 194.6 375.235 189.48C372.675 184.147 369.262 180.2 364.995 177.64C360.728 174.867 355.608 173.48 349.635 173.48C342.168 173.48 336.195 175.507 331.715 179.56C327.235 183.613 324.995 189.16 324.995 196.2C324.995 201.107 326.275 205.373 328.835 209C331.395 212.627 335.768 215.827 341.955 218.6C348.355 221.373 357.102 224.147 368.195 226.92C385.048 230.76 398.275 235.987 407.875 242.6C417.688 249.213 424.622 257 428.675 265.96C432.728 274.92 434.755 285.267 434.755 297C434.755 311.293 431.555 323.56 425.155 333.8C418.755 344.04 409.475 352.04 397.315 357.8C385.155 363.347 370.435 366.12 353.155 366.12Z" fill="#E4E4E7"/>
</svg>
